<?xml version="1.0" encoding="utf-8"?>
<!-- Generator: Adobe Illustrator 27.9.0, SVG Export Plug-In . SVG Version: 6.00 Build 0)  -->
<svg version="1.1" id="Layer_1" xmlns="http://www.w3.org/2000/svg" xmlns:xlink="http://www.w3.org/1999/xlink" x="0px" y="0px"
	 viewBox="0 0 2000 2000" style="enable-background:new 0 0 2000 2000;" xml:space="preserve">
<style type="text/css">
	.st0{fill:#001002;}
</style>
<rect x="625.89" y="1940.35" class="st0" width="59.65" height="59.65"/>
<rect x="1194.31" y="1739.6" class="st0" width="59.65" height="59.65"/>
<rect x="1150.68" y="1940.35" class="st0" width="181.16" height="59.65"/>
<polygon class="st0" points="1480.24,466.74 1480.24,1145.23 1451.2,1145.23 1451.2,1174.27 1422.18,1174.27 1422.18,1203.3 
	1393.14,1203.3 1393.14,1232.33 1364.11,1232.33 1364.11,1261.36 1335.08,1261.36 1335.02,1290.37 1305.92,1290.36 1305.92,1319.55 
	1127.35,1319.55 1127.35,2000 715.88,2000 715.88,1940.35 832.37,1940.35 832.37,1352.26 626.25,1352.26 626.25,1322.68 
	596.68,1322.68 596.68,1293.11 567.1,1293.11 567.1,1263.53 537.53,1263.53 537.53,1233.96 507.96,1233.96 507.96,1204.38 
	478.38,1204.38 478.38,527.39 507.28,527.39 507.28,498.49 656.34,498.49 656.34,527.39 685.25,527.39 685.25,1141.35 
	832.37,1141.35 832.37,29.95 862.32,29.95 862.32,0 1097.41,0 1097.41,29.95 1127.35,29.95 1127.35,1141.35 1244.3,1141.35 
	1244.3,466.74 1273.2,466.74 1273.2,437.85 1451.34,437.85 1451.34,466.74 "/>
</svg>
