<?xml version="1.0" encoding="utf-8"?>
<!-- Generator: Adobe Illustrator 27.9.0, SVG Export Plug-In . SVG Version: 6.00 Build 0)  -->
<svg version="1.1" id="Layer_1" xmlns="http://www.w3.org/2000/svg" xmlns:xlink="http://www.w3.org/1999/xlink" x="0px" y="0px"
	 viewBox="0 0 2000 2000" style="enable-background:new 0 0 2000 2000;" xml:space="preserve">
<style type="text/css">
	.st0{fill:#001002;}
</style>
<path class="st0" d="M1944.36,511.29V92.84h-91.82V0H1107.8v92.84h-93.46V697.8H921.5v92.57H781.86v92.84H642.9v92.57h-93.18v93.53
	H363.96v-93.19h-93.18v-93.18h-93.12V699.02H86.99v557.61h92.23v91.48h92.3v95.5h93.05v91.41h93.05v94.27h93.12V2000h185.35
	l0.41-92.44h-94.55v-94.14h94.68v-92.23h92.91v-91.89h92.84v91.89h93.32V2000h185.28v-93.66h-93.18v-371.17h93.18v-93.66h92.91
	v-140.05h93.46V976.74h92.57v92.84h93.46V883.76h-186.64V697.39h371.85v-93.05h-277.99v-93.05H1944.36z M1294.51,235.28h-95.5v-95.5
	h95.5V235.28z"/>
</svg>
